<mxfile host="app.diagrams.net" modified="2023-12-01T13:22:26.012Z" agent="Mozilla/5.0 (Macintosh; Intel Mac OS X 10_15_7) AppleWebKit/605.1.15 (KHTML, like Gecko) Version/17.1 Safari/605.1.15" etag="HpmPs9ad7Pb1Hew9PaUn" version="22.1.5" type="github">
  <diagram name="Page-1" id="8fkopur-IaXd6LPKFOyk">
    <mxGraphModel dx="2295" dy="995" grid="1" gridSize="10" guides="1" tooltips="1" connect="1" arrows="1" fold="1" page="1" pageScale="1" pageWidth="827" pageHeight="1169" math="0" shadow="0">
      <root>
        <mxCell id="0" />
        <mxCell id="1" parent="0" />
        <mxCell id="sAH2Ii_r4UKJBl4Xqn3M-1" value="Choisir mode de jeu" style="rounded=1;whiteSpace=wrap;html=1;fontSize=12;glass=0;strokeWidth=1;shadow=0;" vertex="1" parent="1">
          <mxGeometry x="-598" y="262" width="80" height="30" as="geometry" />
        </mxCell>
        <mxCell id="sAH2Ii_r4UKJBl4Xqn3M-2" value="" style="ellipse;whiteSpace=wrap;html=1;aspect=fixed;fillColor=#000000;" vertex="1" parent="1">
          <mxGeometry x="-758" y="182" width="30" height="30" as="geometry" />
        </mxCell>
        <mxCell id="sAH2Ii_r4UKJBl4Xqn3M-3" value="" style="rounded=0;html=1;jettySize=auto;orthogonalLoop=1;fontSize=11;endArrow=block;endFill=0;endSize=8;strokeWidth=1;shadow=0;labelBackgroundColor=none;edgeStyle=orthogonalEdgeStyle;" edge="1" parent="1" source="sAH2Ii_r4UKJBl4Xqn3M-2" target="sAH2Ii_r4UKJBl4Xqn3M-7">
          <mxGeometry relative="1" as="geometry">
            <mxPoint x="-588" y="307" as="sourcePoint" />
            <mxPoint x="-588" y="357" as="targetPoint" />
          </mxGeometry>
        </mxCell>
        <mxCell id="sAH2Ii_r4UKJBl4Xqn3M-4" value="&lt;font style=&quot;font-size: 17px;&quot;&gt;&lt;b&gt;Joueur&lt;/b&gt;&lt;/font&gt;" style="text;html=1;strokeColor=none;fillColor=none;align=center;verticalAlign=middle;whiteSpace=wrap;rounded=0;" vertex="1" parent="1">
          <mxGeometry x="-588" y="110" width="60" height="30" as="geometry" />
        </mxCell>
        <mxCell id="sAH2Ii_r4UKJBl4Xqn3M-5" value="&lt;b&gt;&lt;font style=&quot;font-size: 17px;&quot;&gt;Système&lt;/font&gt;&lt;/b&gt;" style="text;html=1;strokeColor=none;fillColor=none;align=center;verticalAlign=middle;whiteSpace=wrap;rounded=0;" vertex="1" parent="1">
          <mxGeometry x="-213" y="110" width="60" height="30" as="geometry" />
        </mxCell>
        <mxCell id="sAH2Ii_r4UKJBl4Xqn3M-7" value="Entrer nb_joueurs = MAX" style="rounded=1;whiteSpace=wrap;html=1;fontSize=12;glass=0;strokeWidth=1;shadow=0;" vertex="1" parent="1">
          <mxGeometry x="-633" y="182" width="150" height="30" as="geometry" />
        </mxCell>
        <mxCell id="sAH2Ii_r4UKJBl4Xqn3M-8" value="" style="rounded=0;html=1;jettySize=auto;orthogonalLoop=1;fontSize=11;endArrow=block;endFill=0;endSize=8;strokeWidth=1;shadow=0;labelBackgroundColor=none;edgeStyle=orthogonalEdgeStyle;" edge="1" parent="1" source="sAH2Ii_r4UKJBl4Xqn3M-7" target="sAH2Ii_r4UKJBl4Xqn3M-1">
          <mxGeometry relative="1" as="geometry">
            <mxPoint x="-583" y="288" as="sourcePoint" />
            <mxPoint x="-733" y="452" as="targetPoint" />
            <Array as="points" />
          </mxGeometry>
        </mxCell>
        <mxCell id="sAH2Ii_r4UKJBl4Xqn3M-14" style="edgeStyle=orthogonalEdgeStyle;rounded=0;orthogonalLoop=1;jettySize=auto;html=1;exitX=0;exitY=0.5;exitDx=0;exitDy=0;endArrow=block;endFill=0;entryX=0.5;entryY=0;entryDx=0;entryDy=0;" edge="1" parent="1" source="sAH2Ii_r4UKJBl4Xqn3M-9" target="sAH2Ii_r4UKJBl4Xqn3M-19">
          <mxGeometry relative="1" as="geometry">
            <mxPoint x="-738" y="349" as="targetPoint" />
            <Array as="points">
              <mxPoint x="-698" y="349" />
            </Array>
          </mxGeometry>
        </mxCell>
        <mxCell id="sAH2Ii_r4UKJBl4Xqn3M-15" style="edgeStyle=orthogonalEdgeStyle;rounded=0;orthogonalLoop=1;jettySize=auto;html=1;exitX=1;exitY=0.5;exitDx=0;exitDy=0;endArrow=block;endFill=0;entryX=0;entryY=0.5;entryDx=0;entryDy=0;" edge="1" parent="1" source="sAH2Ii_r4UKJBl4Xqn3M-9" target="sAH2Ii_r4UKJBl4Xqn3M-18">
          <mxGeometry relative="1" as="geometry">
            <mxPoint x="-258" y="349" as="targetPoint" />
          </mxGeometry>
        </mxCell>
        <mxCell id="sAH2Ii_r4UKJBl4Xqn3M-9" value="" style="rhombus;whiteSpace=wrap;html=1;" vertex="1" parent="1">
          <mxGeometry x="-583" y="324" width="50" height="50" as="geometry" />
        </mxCell>
        <mxCell id="sAH2Ii_r4UKJBl4Xqn3M-10" style="edgeStyle=orthogonalEdgeStyle;rounded=0;orthogonalLoop=1;jettySize=auto;html=1;exitX=0.5;exitY=1;exitDx=0;exitDy=0;endArrow=block;endFill=0;entryX=0.5;entryY=0;entryDx=0;entryDy=0;" edge="1" parent="1" source="sAH2Ii_r4UKJBl4Xqn3M-1" target="sAH2Ii_r4UKJBl4Xqn3M-9">
          <mxGeometry relative="1" as="geometry">
            <mxPoint x="-438" y="302" as="targetPoint" />
          </mxGeometry>
        </mxCell>
        <mxCell id="sAH2Ii_r4UKJBl4Xqn3M-11" value="" style="shape=umlActor;verticalLabelPosition=bottom;verticalAlign=top;html=1;outlineConnect=0;" vertex="1" parent="1">
          <mxGeometry x="-573" y="50" width="30" height="60" as="geometry" />
        </mxCell>
        <mxCell id="sAH2Ii_r4UKJBl4Xqn3M-12" value="" style="shape=cylinder3;whiteSpace=wrap;html=1;boundedLbl=1;backgroundOutline=1;size=15;" vertex="1" parent="1">
          <mxGeometry x="-204.88" y="50" width="43.75" height="60" as="geometry" />
        </mxCell>
        <mxCell id="sAH2Ii_r4UKJBl4Xqn3M-16" value="si mode_partie &lt;br&gt;= en ligne" style="text;html=1;align=center;verticalAlign=middle;resizable=0;points=[];autosize=1;strokeColor=none;fillColor=none;" vertex="1" parent="1">
          <mxGeometry x="-533" y="314" width="100" height="40" as="geometry" />
        </mxCell>
        <mxCell id="sAH2Ii_r4UKJBl4Xqn3M-17" value="si mode_partie = privée" style="text;html=1;align=center;verticalAlign=middle;resizable=0;points=[];autosize=1;strokeColor=none;fillColor=none;" vertex="1" parent="1">
          <mxGeometry x="-723" y="324" width="150" height="30" as="geometry" />
        </mxCell>
        <mxCell id="sAH2Ii_r4UKJBl4Xqn3M-45" style="edgeStyle=orthogonalEdgeStyle;rounded=0;orthogonalLoop=1;jettySize=auto;html=1;exitX=1;exitY=0.5;exitDx=0;exitDy=0;endArrow=block;endFill=0;" edge="1" parent="1" source="sAH2Ii_r4UKJBl4Xqn3M-18" target="sAH2Ii_r4UKJBl4Xqn3M-44">
          <mxGeometry relative="1" as="geometry" />
        </mxCell>
        <mxCell id="sAH2Ii_r4UKJBl4Xqn3M-18" value="Publier annonce jeu" style="rounded=1;whiteSpace=wrap;html=1;fontSize=12;glass=0;strokeWidth=1;shadow=0;" vertex="1" parent="1">
          <mxGeometry x="-333" y="334" width="80" height="30" as="geometry" />
        </mxCell>
        <mxCell id="sAH2Ii_r4UKJBl4Xqn3M-21" style="edgeStyle=orthogonalEdgeStyle;rounded=0;orthogonalLoop=1;jettySize=auto;html=1;exitX=0.5;exitY=1;exitDx=0;exitDy=0;entryX=0.5;entryY=0;entryDx=0;entryDy=0;endArrow=block;endFill=0;" edge="1" parent="1" source="sAH2Ii_r4UKJBl4Xqn3M-19" target="sAH2Ii_r4UKJBl4Xqn3M-20">
          <mxGeometry relative="1" as="geometry" />
        </mxCell>
        <mxCell id="sAH2Ii_r4UKJBl4Xqn3M-19" value="Entrer pseudo" style="rounded=1;whiteSpace=wrap;html=1;fontSize=12;glass=0;strokeWidth=1;shadow=0;" vertex="1" parent="1">
          <mxGeometry x="-738" y="432" width="80" height="30" as="geometry" />
        </mxCell>
        <mxCell id="sAH2Ii_r4UKJBl4Xqn3M-22" style="edgeStyle=orthogonalEdgeStyle;rounded=0;orthogonalLoop=1;jettySize=auto;html=1;exitX=1;exitY=0.5;exitDx=0;exitDy=0;endArrow=block;endFill=0;" edge="1" parent="1" source="sAH2Ii_r4UKJBl4Xqn3M-20" target="sAH2Ii_r4UKJBl4Xqn3M-23">
          <mxGeometry relative="1" as="geometry">
            <mxPoint x="-172.4" y="497" as="targetPoint" />
          </mxGeometry>
        </mxCell>
        <mxCell id="sAH2Ii_r4UKJBl4Xqn3M-20" value="Valider" style="rounded=1;whiteSpace=wrap;html=1;fontSize=12;glass=0;strokeWidth=1;shadow=0;" vertex="1" parent="1">
          <mxGeometry x="-738" y="522" width="80" height="30" as="geometry" />
        </mxCell>
        <mxCell id="sAH2Ii_r4UKJBl4Xqn3M-25" style="edgeStyle=orthogonalEdgeStyle;rounded=0;orthogonalLoop=1;jettySize=auto;html=1;exitX=0.5;exitY=1;exitDx=0;exitDy=0;endArrow=block;endFill=0;" edge="1" parent="1" source="sAH2Ii_r4UKJBl4Xqn3M-23" target="sAH2Ii_r4UKJBl4Xqn3M-24">
          <mxGeometry relative="1" as="geometry" />
        </mxCell>
        <mxCell id="sAH2Ii_r4UKJBl4Xqn3M-23" value="Vérifier pseudo" style="rounded=1;whiteSpace=wrap;html=1;fontSize=12;glass=0;strokeWidth=1;shadow=0;" vertex="1" parent="1">
          <mxGeometry x="-298" y="521" width="80" height="30" as="geometry" />
        </mxCell>
        <mxCell id="sAH2Ii_r4UKJBl4Xqn3M-26" style="edgeStyle=orthogonalEdgeStyle;rounded=0;orthogonalLoop=1;jettySize=auto;html=1;endArrow=block;endFill=0;exitX=0.5;exitY=1;exitDx=0;exitDy=0;" edge="1" parent="1" source="sAH2Ii_r4UKJBl4Xqn3M-24" target="sAH2Ii_r4UKJBl4Xqn3M-30">
          <mxGeometry relative="1" as="geometry">
            <mxPoint x="-185" y="611" as="targetPoint" />
            <mxPoint x="-258" y="641" as="sourcePoint" />
            <Array as="points">
              <mxPoint x="-258" y="706" />
            </Array>
          </mxGeometry>
        </mxCell>
        <mxCell id="sAH2Ii_r4UKJBl4Xqn3M-27" style="edgeStyle=orthogonalEdgeStyle;rounded=0;orthogonalLoop=1;jettySize=auto;html=1;exitX=0;exitY=0.5;exitDx=0;exitDy=0;endArrow=block;endFill=0;" edge="1" parent="1" source="sAH2Ii_r4UKJBl4Xqn3M-24" target="sAH2Ii_r4UKJBl4Xqn3M-29">
          <mxGeometry relative="1" as="geometry">
            <mxPoint x="-328" y="661" as="targetPoint" />
          </mxGeometry>
        </mxCell>
        <mxCell id="sAH2Ii_r4UKJBl4Xqn3M-24" value="" style="rhombus;whiteSpace=wrap;html=1;" vertex="1" parent="1">
          <mxGeometry x="-283" y="586" width="50" height="50" as="geometry" />
        </mxCell>
        <mxCell id="sAH2Ii_r4UKJBl4Xqn3M-35" style="edgeStyle=orthogonalEdgeStyle;rounded=0;orthogonalLoop=1;jettySize=auto;html=1;exitX=0.5;exitY=1;exitDx=0;exitDy=0;endArrow=block;endFill=0;" edge="1" parent="1" source="sAH2Ii_r4UKJBl4Xqn3M-29" target="sAH2Ii_r4UKJBl4Xqn3M-34">
          <mxGeometry relative="1" as="geometry" />
        </mxCell>
        <mxCell id="sAH2Ii_r4UKJBl4Xqn3M-29" value="Ajouter joueur" style="rounded=1;whiteSpace=wrap;html=1;fontSize=12;glass=0;strokeWidth=1;shadow=0;" vertex="1" parent="1">
          <mxGeometry x="-348" y="651" width="80" height="30" as="geometry" />
        </mxCell>
        <mxCell id="sAH2Ii_r4UKJBl4Xqn3M-33" style="edgeStyle=orthogonalEdgeStyle;rounded=0;orthogonalLoop=1;jettySize=auto;html=1;exitX=0.5;exitY=0;exitDx=0;exitDy=0;endArrow=block;endFill=0;" edge="1" parent="1" source="sAH2Ii_r4UKJBl4Xqn3M-30" target="sAH2Ii_r4UKJBl4Xqn3M-19">
          <mxGeometry relative="1" as="geometry">
            <Array as="points">
              <mxPoint x="-188" y="447" />
            </Array>
          </mxGeometry>
        </mxCell>
        <mxCell id="sAH2Ii_r4UKJBl4Xqn3M-30" value="Afficher message erreur" style="rounded=1;whiteSpace=wrap;html=1;fontSize=12;glass=0;strokeWidth=1;shadow=0;" vertex="1" parent="1">
          <mxGeometry x="-238" y="691" width="100" height="30" as="geometry" />
        </mxCell>
        <mxCell id="sAH2Ii_r4UKJBl4Xqn3M-31" value="non valide" style="text;html=1;align=center;verticalAlign=middle;resizable=0;points=[];autosize=1;strokeColor=none;fillColor=none;" vertex="1" parent="1">
          <mxGeometry x="-268" y="631" width="80" height="30" as="geometry" />
        </mxCell>
        <mxCell id="sAH2Ii_r4UKJBl4Xqn3M-32" value="valide" style="text;html=1;align=center;verticalAlign=middle;resizable=0;points=[];autosize=1;strokeColor=none;fillColor=none;" vertex="1" parent="1">
          <mxGeometry x="-333" y="586" width="50" height="30" as="geometry" />
        </mxCell>
        <mxCell id="sAH2Ii_r4UKJBl4Xqn3M-34" value="Vérifier nb_joueurs" style="rounded=1;whiteSpace=wrap;html=1;fontSize=12;glass=0;strokeWidth=1;shadow=0;" vertex="1" parent="1">
          <mxGeometry x="-348" y="731" width="80" height="30" as="geometry" />
        </mxCell>
        <mxCell id="sAH2Ii_r4UKJBl4Xqn3M-38" style="edgeStyle=orthogonalEdgeStyle;rounded=0;orthogonalLoop=1;jettySize=auto;html=1;exitX=0;exitY=0.5;exitDx=0;exitDy=0;endArrow=block;endFill=0;" edge="1" parent="1" source="sAH2Ii_r4UKJBl4Xqn3M-36" target="sAH2Ii_r4UKJBl4Xqn3M-19">
          <mxGeometry relative="1" as="geometry">
            <mxPoint x="-768" y="512" as="targetPoint" />
            <Array as="points">
              <mxPoint x="-778" y="816" />
              <mxPoint x="-778" y="447" />
            </Array>
          </mxGeometry>
        </mxCell>
        <mxCell id="sAH2Ii_r4UKJBl4Xqn3M-40" style="edgeStyle=orthogonalEdgeStyle;rounded=0;orthogonalLoop=1;jettySize=auto;html=1;endArrow=block;endFill=0;" edge="1" parent="1" source="sAH2Ii_r4UKJBl4Xqn3M-36" target="sAH2Ii_r4UKJBl4Xqn3M-43">
          <mxGeometry relative="1" as="geometry">
            <mxPoint x="-548" y="862" as="targetPoint" />
            <mxPoint x="-368" y="841" as="sourcePoint" />
            <Array as="points">
              <mxPoint x="-308" y="862" />
              <mxPoint x="-548" y="862" />
            </Array>
          </mxGeometry>
        </mxCell>
        <mxCell id="sAH2Ii_r4UKJBl4Xqn3M-36" value="" style="rhombus;whiteSpace=wrap;html=1;" vertex="1" parent="1">
          <mxGeometry x="-333" y="791" width="50" height="50" as="geometry" />
        </mxCell>
        <mxCell id="sAH2Ii_r4UKJBl4Xqn3M-37" style="edgeStyle=orthogonalEdgeStyle;rounded=0;orthogonalLoop=1;jettySize=auto;html=1;exitX=0.5;exitY=1;exitDx=0;exitDy=0;endArrow=block;endFill=0;" edge="1" parent="1" source="sAH2Ii_r4UKJBl4Xqn3M-34" target="sAH2Ii_r4UKJBl4Xqn3M-36">
          <mxGeometry relative="1" as="geometry" />
        </mxCell>
        <mxCell id="sAH2Ii_r4UKJBl4Xqn3M-39" value="nb_joueurs &amp;lt; &amp;nbsp;MAX" style="text;html=1;align=center;verticalAlign=middle;resizable=0;points=[];autosize=1;strokeColor=none;fillColor=none;" vertex="1" parent="1">
          <mxGeometry x="-613" y="790" width="130" height="30" as="geometry" />
        </mxCell>
        <mxCell id="sAH2Ii_r4UKJBl4Xqn3M-41" value="nb_joueurs = MAX" style="text;html=1;align=center;verticalAlign=middle;resizable=0;points=[];autosize=1;strokeColor=none;fillColor=none;" vertex="1" parent="1">
          <mxGeometry x="-538" y="836" width="120" height="30" as="geometry" />
        </mxCell>
        <mxCell id="sAH2Ii_r4UKJBl4Xqn3M-54" style="edgeStyle=orthogonalEdgeStyle;rounded=0;orthogonalLoop=1;jettySize=auto;html=1;exitX=0.5;exitY=1;exitDx=0;exitDy=0;endArrow=block;endFill=0;" edge="1" parent="1" source="sAH2Ii_r4UKJBl4Xqn3M-43" target="sAH2Ii_r4UKJBl4Xqn3M-56">
          <mxGeometry relative="1" as="geometry">
            <mxPoint x="-548.3333333333333" y="941" as="targetPoint" />
          </mxGeometry>
        </mxCell>
        <mxCell id="sAH2Ii_r4UKJBl4Xqn3M-43" value="Lancer partie" style="rounded=1;whiteSpace=wrap;html=1;fontSize=12;glass=0;strokeWidth=1;shadow=0;" vertex="1" parent="1">
          <mxGeometry x="-588" y="881" width="80" height="30" as="geometry" />
        </mxCell>
        <mxCell id="sAH2Ii_r4UKJBl4Xqn3M-49" style="edgeStyle=orthogonalEdgeStyle;rounded=0;orthogonalLoop=1;jettySize=auto;html=1;exitX=0.5;exitY=1;exitDx=0;exitDy=0;endArrow=block;endFill=0;" edge="1" parent="1" source="sAH2Ii_r4UKJBl4Xqn3M-44" target="sAH2Ii_r4UKJBl4Xqn3M-46">
          <mxGeometry relative="1" as="geometry" />
        </mxCell>
        <mxCell id="sAH2Ii_r4UKJBl4Xqn3M-44" value="Accueillir joueurs" style="rounded=1;whiteSpace=wrap;html=1;fontSize=12;glass=0;strokeWidth=1;shadow=0;" vertex="1" parent="1">
          <mxGeometry x="-213" y="334" width="80" height="30" as="geometry" />
        </mxCell>
        <mxCell id="sAH2Ii_r4UKJBl4Xqn3M-46" value="Vérifier nb_joueurs" style="rounded=1;whiteSpace=wrap;html=1;fontSize=12;glass=0;strokeWidth=1;shadow=0;" vertex="1" parent="1">
          <mxGeometry x="-213" y="392" width="80" height="30" as="geometry" />
        </mxCell>
        <mxCell id="sAH2Ii_r4UKJBl4Xqn3M-50" style="edgeStyle=orthogonalEdgeStyle;rounded=0;orthogonalLoop=1;jettySize=auto;html=1;exitX=1;exitY=0.5;exitDx=0;exitDy=0;endArrow=block;endFill=0;" edge="1" parent="1" source="sAH2Ii_r4UKJBl4Xqn3M-47" target="sAH2Ii_r4UKJBl4Xqn3M-44">
          <mxGeometry relative="1" as="geometry">
            <mxPoint x="-24.560000000000002" y="382" as="targetPoint" />
            <Array as="points">
              <mxPoint x="-38" y="487" />
              <mxPoint x="-38" y="349" />
            </Array>
          </mxGeometry>
        </mxCell>
        <mxCell id="sAH2Ii_r4UKJBl4Xqn3M-52" style="edgeStyle=orthogonalEdgeStyle;rounded=0;orthogonalLoop=1;jettySize=auto;html=1;exitX=0.5;exitY=1;exitDx=0;exitDy=0;endArrow=block;endFill=0;" edge="1" parent="1" source="sAH2Ii_r4UKJBl4Xqn3M-47" target="sAH2Ii_r4UKJBl4Xqn3M-43">
          <mxGeometry relative="1" as="geometry">
            <mxPoint x="52" y="582" as="targetPoint" />
            <Array as="points">
              <mxPoint x="-133" y="896" />
            </Array>
          </mxGeometry>
        </mxCell>
        <mxCell id="sAH2Ii_r4UKJBl4Xqn3M-47" value="" style="rhombus;whiteSpace=wrap;html=1;" vertex="1" parent="1">
          <mxGeometry x="-158" y="462" width="50" height="50" as="geometry" />
        </mxCell>
        <mxCell id="sAH2Ii_r4UKJBl4Xqn3M-48" style="edgeStyle=orthogonalEdgeStyle;rounded=0;orthogonalLoop=1;jettySize=auto;html=1;exitX=0.5;exitY=1;exitDx=0;exitDy=0;endArrow=block;endFill=0;" edge="1" parent="1" source="sAH2Ii_r4UKJBl4Xqn3M-46" target="sAH2Ii_r4UKJBl4Xqn3M-47">
          <mxGeometry relative="1" as="geometry" />
        </mxCell>
        <mxCell id="sAH2Ii_r4UKJBl4Xqn3M-51" value="nb_joueurs &lt;br&gt;&amp;lt; MAX" style="text;html=1;align=center;verticalAlign=middle;resizable=0;points=[];autosize=1;strokeColor=none;fillColor=none;" vertex="1" parent="1">
          <mxGeometry x="-123.95" y="452" width="80" height="40" as="geometry" />
        </mxCell>
        <mxCell id="sAH2Ii_r4UKJBl4Xqn3M-53" value="nb_joueurs &lt;br&gt;= MAX&amp;nbsp;" style="text;html=1;align=center;verticalAlign=middle;resizable=0;points=[];autosize=1;strokeColor=none;fillColor=none;" vertex="1" parent="1">
          <mxGeometry x="-138" y="512" width="80" height="40" as="geometry" />
        </mxCell>
        <mxCell id="sAH2Ii_r4UKJBl4Xqn3M-56" value="" style="ellipse;whiteSpace=wrap;html=1;aspect=fixed;fillColor=none;" vertex="1" parent="1">
          <mxGeometry x="-569.25" y="941" width="42.5" height="42.5" as="geometry" />
        </mxCell>
        <mxCell id="sAH2Ii_r4UKJBl4Xqn3M-57" value="" style="ellipse;whiteSpace=wrap;html=1;aspect=fixed;fillColor=#000000;" vertex="1" parent="1">
          <mxGeometry x="-558" y="952.25" width="20" height="20" as="geometry" />
        </mxCell>
        <mxCell id="sAH2Ii_r4UKJBl4Xqn3M-59" value="" style="line;strokeWidth=4;direction=south;html=1;perimeter=backbonePerimeter;points=[];outlineConnect=0;" vertex="1" parent="1">
          <mxGeometry x="-413" y="30" width="10" height="1020" as="geometry" />
        </mxCell>
        <mxCell id="sAH2Ii_r4UKJBl4Xqn3M-60" value="" style="line;strokeWidth=4;html=1;perimeter=backbonePerimeter;points=[];outlineConnect=0;" vertex="1" parent="1">
          <mxGeometry x="-770" y="150" width="710" height="10" as="geometry" />
        </mxCell>
      </root>
    </mxGraphModel>
  </diagram>
</mxfile>
